<?xml version="1.0" encoding="UTF-8" standalone="no"?>
<!-- Created with Inkscape (http://www.inkscape.org/) -->

<svg
   xmlns:dc="http://purl.org/dc/elements/1.1/"
   xmlns:cc="http://creativecommons.org/ns#"
   xmlns:rdf="http://www.w3.org/1999/02/22-rdf-syntax-ns#"
   xmlns:svg="http://www.w3.org/2000/svg"
   xmlns="http://www.w3.org/2000/svg"
   xmlns:sodipodi="http://sodipodi.sourceforge.net/DTD/sodipodi-0.dtd"
   xmlns:inkscape="http://www.inkscape.org/namespaces/inkscape"
   width="210mm"
   height="297mm"
   id="svg3930"
   version="1.1"
   inkscape:version="0.48.2 r9819"
   sodipodi:docname="Acelerar tiempo.svg">
  <defs
     id="defs3932" />
  <sodipodi:namedview
     id="base"
     pagecolor="#ffffff"
     bordercolor="#666666"
     borderopacity="1.0"
     inkscape:pageopacity="0.0"
     inkscape:pageshadow="2"
     inkscape:zoom="0.175"
     inkscape:cx="469.65251"
     inkscape:cy="435.42175"
     inkscape:document-units="px"
     inkscape:current-layer="g4469"
     showgrid="false"
     showguides="true"
     inkscape:guide-bbox="true"
     inkscape:window-width="675"
     inkscape:window-height="604"
     inkscape:window-x="858"
     inkscape:window-y="135"
     inkscape:window-maximized="0" />
  <metadata
     id="metadata3935">
    <rdf:RDF>
      <cc:Work
         rdf:about="">
        <dc:format>image/svg+xml</dc:format>
        <dc:type
           rdf:resource="http://purl.org/dc/dcmitype/StillImage" />
        <dc:title></dc:title>
      </cc:Work>
    </rdf:RDF>
  </metadata>
  <g
     inkscape:label="Capa 1"
     inkscape:groupmode="layer"
     id="layer1">
    <g
       id="g4469">
      <g
         id="g4492">
        <path
           sodipodi:type="arc"
           style="opacity:0.98999999000000005;fill:#706eff;fill-opacity:0.29946524;fill-rule:nonzero;stroke:#000000;stroke-width:22;stroke-linecap:butt;stroke-linejoin:round;stroke-miterlimit:4;stroke-opacity:1;stroke-dasharray:none;stroke-dashoffset:0"
           id="path3938"
           sodipodi:cx="380"
           sodipodi:cy="589.50507"
           sodipodi:rx="377.14285"
           sodipodi:ry="377.14285"
           d="m 757.14285,589.50507 a 377.14285,377.14285 0 1 1 -754.2857028,0 377.14285,377.14285 0 1 1 754.2857028,0 z"
           transform="translate(-5.7142853,-62.857143)" />
        <path
           style="fill:#ffffff;fill-opacity:1;stroke:none"
           d="m 406.91816,183.42794 c 0,0 297.13404,43.07876 306.10597,333.75644 6.10848,197.90597 14.94674,8.2796 -129.15596,-182.0305 C 444.41214,150.98043 237.79667,186.79082 406.91816,183.42794 z"
           id="path3942"
           inkscape:connector-curvature="0"
           sodipodi:nodetypes="cssc" />
        <path
           transform="translate(-5.7142853,-62.857143)"
           style="opacity:0.98999999;fill:#000003;fill-opacity:0.36898397;fill-rule:nonzero;stroke:none"
           d="M 646.68027,856.18533 C 578.43084,924.43477 484.14512,966.64792 380,966.64792 171.70975,966.64792 2.8571472,797.79531 2.8571472,589.50507 2.8571472,485.35994 45.070298,391.07423 113.31973,322.8248 -15.453203,680.72138 386.40454,992.71656 646.68027,856.18533 z"
           id="path4452"
           inkscape:connector-curvature="0"
           sodipodi:nodetypes="csscc" />
        <path
           sodipodi:nodetypes="ccszzzzzcc"
           inkscape:connector-curvature="0"
           id="path4482"
           d="m 498.52937,651.87197 c -11.9362,17.99711 49.94504,84.4125 69.55185,65.91734 233.10794,-249.0971 -152.83895,-616.34419 -386.40754,-353.10225 -159.307061,179.54597 10.17417,296.46533 9.46773,312.81509 -0.70644,16.34976 -68.4192,50.67162 -60,65.71429 8.4192,15.04267 226.1179,36.49566 242.56999,17.14285 16.45209,-19.35281 -14.93903,-226.42716 -33.99856,-227.79406 -19.05953,-1.3669 -46.88401,68.08122 -61.47062,68.08122 -14.58661,0 -98.35417,-72.99859 -26.6106,-166.89775 146.02929,-162.47059 380.26252,60.12616 246.89775,218.12327 z"
           style="fill:#706eff;fill-opacity:1;stroke:#000000;stroke-width:12;stroke-linecap:butt;stroke-linejoin:miter;stroke-miterlimit:4;stroke-opacity:1;stroke-dasharray:none" />
        <path
           sodipodi:nodetypes="zsccz"
           inkscape:connector-curvature="0"
           id="path4484"
           d="m 411.91785,288.83759 c 27.67263,-0.43806 220.13456,54.55758 224.08945,260.26465 0.61979,32.23738 -4.12764,-41.80607 -18.90075,-76.16729 C 584.47629,402.85944 547.80908,336.31857 444.20334,300.60151 412.21806,288.99549 384.24522,289.27565 411.91785,288.83759 z"
           style="fill:#ffffff;fill-opacity:1;stroke:none" />
        <path
           style="fill:#ffffff;fill-opacity:1;stroke:none"
           d="m 303.34642,588.83759 c 13.28231,-23.1547 30.532,-45.64322 33.66541,-44.47941 5.84268,2.17009 21.2074,52.94026 31.13833,152.24406 8.22831,82.27849 -19.33442,-135.91244 -32.55142,-136.69271 -11.13505,-0.65737 -45.53462,52.08275 -32.25232,28.92806 z"
           id="path4486"
           inkscape:connector-curvature="0"
           sodipodi:nodetypes="zsssz" />
        <path
           style="fill:#000000;fill-opacity:0.35294118;stroke:none"
           d="m 239.53083,683.25849 c -0.50982,-5.48421 -47.98742,-39.00157 -76.67738,-78.65226 -28.68996,-39.65068 -45.02086,-102.57753 -32.52304,-44.73789 12.49782,57.83964 75.03063,102.86282 77.11703,122.63381 -0.35322,8.17488 -58.00079,46.97764 -53.86731,54.87746 4.13349,7.89981 193.67918,32.33249 210.13127,12.97968 -112.58634,-5.68787 -147.37815,-15.28608 -148.97959,-26.55427 -2.11797,-14.90256 25.30884,-35.06232 24.79902,-40.54653 z"
           id="path4488"
           inkscape:connector-curvature="0"
           sodipodi:nodetypes="zszczcsz" />
        <path
           sodipodi:nodetypes="zssssz"
           inkscape:connector-curvature="0"
           id="path4490"
           d="m 546.9976,544.25546 c -0.657,20.3045 5.05077,57.57869 -37.37564,110.10662 -8.75471,10.83917 26.26397,43.43656 38.89087,52.52793 12.62691,9.09137 -27.24854,-37.43829 -25.75888,-46.97209 1.26269,-8.08122 17.24855,-23.0317 24.16819,-50.20491 6.91965,-27.17322 0.73247,-85.76206 0.0755,-65.45755 z"
           style="fill:#000000;stroke:none;stroke-width:1px;stroke-linecap:butt;stroke-linejoin:miter;stroke-opacity:1;fill-opacity:0.35294119" />
      </g>
    </g>
  </g>
</svg>
