<?xml version="1.0" encoding="UTF-8" standalone="no"?>
<!-- Created with Inkscape (http://www.inkscape.org/) -->

<svg
   xmlns:dc="http://purl.org/dc/elements/1.1/"
   xmlns:cc="http://creativecommons.org/ns#"
   xmlns:rdf="http://www.w3.org/1999/02/22-rdf-syntax-ns#"
   xmlns:svg="http://www.w3.org/2000/svg"
   xmlns="http://www.w3.org/2000/svg"
   xmlns:sodipodi="http://sodipodi.sourceforge.net/DTD/sodipodi-0.dtd"
   xmlns:inkscape="http://www.inkscape.org/namespaces/inkscape"
   width="240.66655"
   height="273.18903"
   id="svg2"
   version="1.1"
   inkscape:version="0.48.3.1 r9886"
   sodipodi:docname="accele.svg"
   inkscape:export-filename="/pjs/limejs-master/bin/CoolGame/assets/accele.png"
   inkscape:export-xdpi="37.915855"
   inkscape:export-ydpi="37.915855">
  <defs
     id="defs4">
    <linearGradient
       id="linearGradient4414">
      <stop
         style="stop-color:#00e406;stop-opacity:1;"
         offset="0"
         id="stop4416" />
      <stop
         style="stop-color:#00e406;stop-opacity:0;"
         offset="1"
         id="stop4418" />
    </linearGradient>
    <marker
       inkscape:stockid="Arrow2Mend"
       orient="auto"
       refY="0"
       refX="0"
       id="Arrow2Mend"
       style="overflow:visible">
      <path
         id="path3786"
         style="fill-rule:evenodd;stroke-width:0.625;stroke-linejoin:round"
         d="M 8.7185878,4.0337352 -2.2072895,0.01601326 8.7185884,-4.0017078 c -1.7454984,2.3720609 -1.7354408,5.6174519 -6e-7,8.035443 z"
         transform="scale(-0.6,-0.6)"
         inkscape:connector-curvature="0" />
    </marker>
    <marker
       inkscape:stockid="Arrow1Lend"
       orient="auto"
       refY="0"
       refX="0"
       id="Arrow1Lend"
       style="overflow:visible">
      <path
         id="path3762"
         d="M 0,0 5,-5 -12.5,0 5,5 0,0 z"
         style="fill-rule:evenodd;stroke:#000000;stroke-width:1pt"
         transform="matrix(-0.8,0,0,-0.8,-10,0)"
         inkscape:connector-curvature="0" />
    </marker>
  </defs>
  <sodipodi:namedview
     id="base"
     pagecolor="#ffffff"
     bordercolor="#666666"
     borderopacity="1.0"
     inkscape:pageopacity="0.0"
     inkscape:pageshadow="2"
     inkscape:zoom="1.979899"
     inkscape:cx="121.92404"
     inkscape:cy="163.59773"
     inkscape:document-units="px"
     inkscape:current-layer="layer1"
     showgrid="false"
     fit-margin-top="0"
     fit-margin-left="0"
     fit-margin-right="0"
     fit-margin-bottom="0"
     inkscape:window-width="1215"
     inkscape:window-height="1000"
     inkscape:window-x="65"
     inkscape:window-y="24"
     inkscape:window-maximized="1" />
  <metadata
     id="metadata7">
    <rdf:RDF>
      <cc:Work
         rdf:about="">
        <dc:format>image/svg+xml</dc:format>
        <dc:type
           rdf:resource="http://purl.org/dc/dcmitype/StillImage" />
        <dc:title></dc:title>
      </cc:Work>
    </rdf:RDF>
  </metadata>
  <g
     inkscape:label="Layer 1"
     inkscape:groupmode="layer"
     id="layer1"
     transform="translate(642.25223,-166.82677)">
    <g
       id="g4385"
       style="fill:#00e406;fill-opacity:1;stroke:#2a6746;stroke-width:3.5;stroke-miterlimit:4;stroke-opacity:1;stroke-dasharray:none"
       transform="matrix(0.583913,0,0,0.583913,-309.24754,127.82868)">
      <path
         style="font-size:medium;font-style:normal;font-variant:normal;font-weight:normal;font-stretch:normal;text-indent:0;text-align:start;text-decoration:none;line-height:normal;letter-spacing:normal;word-spacing:normal;text-transform:none;direction:ltr;block-progression:tb;writing-mode:lr-tb;text-anchor:start;baseline-shift:baseline;color:#000000;fill:#00e406;fill-opacity:1;stroke:#2a6746;stroke-width:3.5;stroke-miterlimit:4;stroke-opacity:1;stroke-dasharray:none;marker:none;visibility:visible;display:inline;overflow:visible;enable-background:accumulate;font-family:Sans;-inkscape-font-specification:Sans"
         d="m -475.72107,243.07151 c -30.14783,54.55468 -20.47461,126.57919 29.9594,167.68687 50.53217,41.18771 130.61634,36.78072 169.71932,-18.61896 20.55449,-29.12085 23.52723,-71.40755 8.5127,-97.58102 -7.50726,-13.08673 -21.21193,-21.98407 -37.95922,-19.9231 -16.7473,2.06097 -35.60308,13.53737 -57.67423,37.05019 l 10.33093,9.72073 c 20.83844,-22.1996 37.64346,-31.25611 49.07959,-32.66346 11.43612,-1.40735 18.41584,3.29223 23.90691,12.86432 10.98215,19.14417 9.14218,58.34223 -7.80036,82.3458 -34.00517,48.17728 -104.67191,52.0184 -149.1167,15.7924 -51.20709,-41.73782 -55.19882,-120.04072 -12.82495,-169.62681 31.9687,-37.40993 84.46444,-52.70521 131.82399,-39.63037 l 3.78086,-13.67048 c -52.67253,-14.54162 -110.69757,2.33576 -146.3939,44.10777 -5.93057,6.93999 -11.03751,14.35259 -15.34434,22.14612 z"
         id="path2985"
         inkscape:connector-curvature="0" />
      <path
         d="m -378.32324,130.75934 80.6221,57.76938 -98.84125,8.22383 c 19.71366,-15.52352 26.98949,-42.19997 18.21915,-65.99321 z"
         style="fill:#00e406;fill-opacity:1;fill-rule:evenodd;stroke:#2a6746;stroke-width:3.5;stroke-linejoin:round;stroke-miterlimit:4;stroke-opacity:1;stroke-dasharray:none"
         id="path4391"
         inkscape:connector-curvature="0" />
    </g>
    <path
       sodipodi:type="arc"
       style="opacity:0.56378605;fill:#7aff7d;fill-opacity:0.73515984;stroke:none"
       id="path4412"
       sodipodi:cx="208.57143"
       sodipodi:cy="282.38028"
       sodipodi:rx="105.71429"
       sodipodi:ry="105.71429"
       d="m 314.28571,282.38028 c 0,58.38439 -47.3299,105.71429 -105.71428,105.71429 -58.38439,0 -105.71429,-47.3299 -105.71429,-105.71429 0,-58.38439 47.3299,-105.71429 105.71429,-105.71429 58.38438,0 105.71428,47.3299 105.71428,105.71429 z"
       transform="matrix(1.1382877,0,0,1.2921103,-759.33325,-61.445177)" />
  </g>
</svg>
