<?xml version="1.0" encoding="UTF-8" standalone="no"?>
<!-- Created with Inkscape (http://www.inkscape.org/) -->

<svg
   xmlns:dc="http://purl.org/dc/elements/1.1/"
   xmlns:cc="http://creativecommons.org/ns#"
   xmlns:rdf="http://www.w3.org/1999/02/22-rdf-syntax-ns#"
   xmlns:svg="http://www.w3.org/2000/svg"
   xmlns="http://www.w3.org/2000/svg"
   xmlns:sodipodi="http://sodipodi.sourceforge.net/DTD/sodipodi-0.dtd"
   xmlns:inkscape="http://www.inkscape.org/namespaces/inkscape"
   width="296.03403"
   height="172.0625"
   id="svg3930"
   version="1.1"
   inkscape:version="0.48.2 r9819"
   sodipodi:docname="continue.svg">
  <defs
     id="defs3932" />
  <sodipodi:namedview
     id="base"
     pagecolor="#ffffff"
     bordercolor="#666666"
     borderopacity="1.0"
     inkscape:pageopacity="0.0"
     inkscape:pageshadow="2"
     inkscape:zoom="1.979899"
     inkscape:cx="90.092814"
     inkscape:cy="110.59363"
     inkscape:document-units="px"
     inkscape:current-layer="text2995"
     showgrid="false"
     showguides="true"
     inkscape:guide-bbox="true"
     inkscape:window-width="1680"
     inkscape:window-height="994"
     inkscape:window-x="-4"
     inkscape:window-y="-4"
     inkscape:window-maximized="1"
     fit-margin-top="0"
     fit-margin-left="0"
     fit-margin-right="0"
     fit-margin-bottom="0" />
  <metadata
     id="metadata3935">
    <rdf:RDF>
      <cc:Work
         rdf:about="">
        <dc:format>image/svg+xml</dc:format>
        <dc:type
           rdf:resource="http://purl.org/dc/dcmitype/StillImage" />
        <dc:title />
      </cc:Work>
    </rdf:RDF>
  </metadata>
  <g
     inkscape:label="Capa 1"
     inkscape:groupmode="layer"
     id="layer1"
     transform="translate(600.875,-327.8125)">
    <g
       id="g4469">
      <g
         transform="scale(0.53541592,1.8677069)"
         style="font-size:470.23291016px;font-style:normal;font-weight:normal;line-height:125%;letter-spacing:0px;word-spacing:0px;fill:#af00e9;fill-opacity:1;stroke:#6a00da;stroke-width:6.1410017;stroke-miterlimit:4;stroke-opacity:1;font-family:Sans"
         id="text2995">
        <rect
           style="opacity:0.98999999000000005;fill:#007309;fill-opacity:1;fill-rule:nonzero;stroke:#004112;stroke-width:5.91801833999999970;stroke-linecap:round;stroke-linejoin:round;stroke-miterlimit:4;stroke-opacity:1;stroke-dasharray:none"
           id="rect3789"
           width="537.37048"
           height="86.537186"
           x="-1115.1053"
           y="178.09721" />
        <g
           transform="matrix(3.6980923,0,0,1.1681081,-1027.0534,167.45623)"
           style="font-size:40px;font-variant:normal;font-weight:bold;font-stretch:normal;stroke:none;font-family:Tekton Pro;-inkscape-font-specification:Tekton Pro Bold"
           id="flowRoot3773">
          <path
             style="fill:#ffffff;fill-opacity:1;stroke:none"
             d="m 25.643714,38.663798 c -0.97433,0.947249 -0.342801,2.771808 1.021859,2.902462 1.146906,0.334524 2.961497,0.02837 2.931838,-1.484511 -0.267924,-1.31272 -0.53912,-2.582972 -0.397293,-3.975306 -0.01134,-4.054352 -0.04901,-8.108644 -0.11645,-12.162455 0.574791,0.842463 1.085214,1.93201 1.755121,2.798525 2.03217,2.980236 4.75296,5.394732 6.862572,8.31348 1.298409,1.700634 2.475775,3.503081 3.347102,5.459696 0.532143,1.238982 2.052524,1.332282 3.174842,0.979788 1.103797,-0.324523 0.840385,-1.741306 0.300165,-2.406002 0,-7.021804 0,-14.043607 0,-21.065411 0.730159,-1.068122 0.152404,-2.592178 -1.19875,-2.703071 -1.099892,-0.352097 -2.709083,0.111316 -2.745268,1.467197 0.347355,1.312432 0.484285,2.65836 0.384145,4.065502 0.0046,4.323599 0.01892,8.647557 0.119918,12.970169 -0.60383,-0.803537 -1.177724,-1.846683 -1.893779,-2.64682 -2.041095,-2.514324 -4.41577,-4.749546 -6.279662,-7.410505 -1.390122,-1.941987 -2.749237,-4.035455 -3.215712,-6.411752 0.217994,-1.261829 -1.120038,-1.825648 -2.170673,-1.69069 -1.261443,-0.118429 -2.429559,1.041203 -2.1781,2.311238 0.159417,0.591582 0.389874,1.132491 0.298125,1.761776 0,6.308896 0,12.617793 0,18.92669 z"
             id="path4013"
             inkscape:connector-curvature="0" />
          <path
             style="fill:#ffffff;fill-opacity:1;stroke:none"
             d="m 53.93679,30.383905 c 2.666632,-0.333329 5.333265,-0.666658 7.999897,-0.999987 1.199563,0.708619 3.254514,0.0695 3.268271,-1.506968 0.246433,-1.61887 -1.744157,-2.917338 -3.134687,-2.07157 -0.629103,0.488817 -1.471274,0.36016 -2.216828,0.515115 -1.972218,0.247818 -3.944435,0.495636 -5.916653,0.743454 0,-2.226638 0,-4.453276 0,-6.679914 3.199959,-0.29333 6.399917,-0.586659 9.599876,-0.879989 1.269712,0.699558 3.236325,0.254045 3.584197,-1.300396 0.517925,-1.326778 -0.686143,-2.683307 -2.043947,-2.574431 -0.861472,-0.102142 -1.435815,0.743545 -2.285663,0.653583 -2.951488,0.260425 -5.902975,0.520851 -8.854463,0.781276 -0.0203,-1.323312 -1.665894,-1.660753 -2.70993,-1.417748 -1.173888,0.01929 -1.819624,1.281181 -1.49986,2.134003 -0.883782,0.970136 -0.40135,2.471187 0.36984,3.204097 0,2.066506 0,4.133012 0,6.199518 -0.956646,1.015032 -0.947002,2.75683 8e-6,3.746723 -3e-6,2.484378 -5e-6,4.968755 -8e-6,7.453133 -0.740787,1.098492 -0.798614,3.016739 0.615224,3.600734 1.083409,0.401695 2.421109,0.19397 3.331359,-0.4855 4.204421,-0.288551 8.409952,-0.618975 12.613813,-0.872138 1.262178,0.0092 2.177689,-1.272028 1.747693,-2.453052 -0.465242,-1.317819 -2.471274,-1.924055 -3.428281,-0.790031 -3.679952,0.25333 -7.359905,0.50666 -11.039857,0.75999 0,-2.586634 -10e-7,-5.173268 -10e-7,-7.759902 z"
             id="path4015"
             inkscape:connector-curvature="0" />
          <path
             style="fill:#ffffff;fill-opacity:1;stroke:none"
             d="m 72.084342,41.66376 c 1.391913,0.06404 2.414103,-1.077146 2.896209,-2.268095 1.504523,-2.812247 3.006321,-5.629409 4.703693,-8.331769 1.668289,2.793479 3.069672,5.733958 4.679939,8.55989 -0.272588,1.398137 1.20756,2.432318 2.484331,1.956655 1.513741,-0.236181 2.137617,-2.463959 0.915626,-3.396637 -2.162617,-3.337574 -3.973314,-6.884383 -6.039923,-10.279867 1.876375,-2.790451 4.046385,-5.368485 5.919924,-8.159895 1.226677,-0.67221 1.694821,-2.6105 0.516667,-3.546783 -0.963174,-0.678149 -2.66175,-0.583759 -3.283166,0.515823 -0.550045,1.421088 -1.530029,2.64057 -2.298608,3.955349 -0.862645,1.359665 -1.746823,2.705707 -2.654793,4.035547 -1.356843,-2.461602 -2.58289,-5.022275 -4.280224,-7.274577 -0.708318,-1.012757 -1.776027,-1.894324 -3.079682,-1.805306 -1.352958,0.06626 -1.932334,1.959899 -1.049363,2.908413 2.36419,2.912712 4.419784,6.065077 6.329295,9.29143 -2.280677,3.380408 -4.452206,6.838606 -6.439917,10.399866 -1.314709,0.431809 -1.549049,2.555455 -0.25234,3.169021 0.280821,0.16837 0.604758,0.263827 0.932332,0.270935 z"
             id="path4017"
             inkscape:connector-curvature="0" />
          <path
             style="fill:#ffffff;fill-opacity:1;stroke:none"
             d="m 101.63485,19.504045 c 1.82664,-0.346662 3.65329,-0.693325 5.47993,-1.039987 0.97119,0.615032 2.51701,0.342483 2.84307,-0.878095 0.41154,-1.066492 -0.18079,-2.565711 -1.44989,-2.5931 -0.8486,-0.08002 -1.59639,0.396579 -2.43411,0.450213 -1.67966,0.300337 -3.35933,0.600674 -5.03899,0.901011 -1.03875,-0.492521 -2.220823,-0.0093 -3.079551,0.559009 -1.706782,0.333657 -3.413565,0.667314 -5.120347,1.000971 -1.010119,-0.692752 -2.529071,-0.09397 -2.721685,1.13879 -0.414677,1.157384 0.493368,2.509843 1.761697,2.381163 0.711844,0.0046 1.263777,-0.515385 1.97164,-0.543825 1.316094,-0.258719 2.632189,-0.517439 3.948284,-0.776158 0,6.159921 0,12.319841 0,18.479762 -0.345546,0.937084 -0.498832,2.443529 0.610766,2.923517 1.119522,0.3089 2.663296,0.225121 3.361826,-0.841863 0.63891,-0.838493 -0.20755,-1.620288 -0.13264,-2.463953 0,-6.232485 0,-12.46497 0,-18.697455 z"
             id="path4019"
             inkscape:connector-curvature="0" />
        </g>
        <g
           transform="matrix(3.0025913,0,0,0.86787366,-1241.9615,157.32119)"
           style="font-size:40px;stroke:none;font-family:Sans"
           id="flowRoot3781">
          <path
             d="m 53.896131,83.427923 c 0.121322,-0.228632 0.242653,-0.485295 0.363995,-0.76999 0.121322,-0.284631 0.186654,-0.569293 0.195998,-0.853989 -0.03501,-1.128118 -0.357005,-1.909774 -0.965989,-2.34497 -0.609,-0.435126 -1.294991,-0.642789 -2.057972,-0.622992 -0.850495,-0.01513 -1.613485,0.2112 -2.288971,0.678992 -0.675496,0.467862 -1.032491,1.268184 -1.070986,2.400968 0.0082,0.287029 0.06183,0.567025 0.160998,0.83999 0.09916,0.273028 0.194827,0.497025 0.286996,0.671991 l 0,27.831637 c -0.228667,0.16917 -0.415331,0.41884 -0.559993,0.74899 -0.144668,0.33017 -0.219333,0.73383 -0.223997,1.21099 0.014,0.86682 0.307994,1.51315 0.88199,1.93897 0.573988,0.42583 1.343977,0.63816 2.309969,0.637 0.408322,-0.007 0.837649,-0.049 1.287984,-0.126 0.450319,-0.077 0.823647,-0.147 1.119985,-0.21 l 11.759849,-1.51198 c 0.260142,0.0852 0.537805,0.15283 0.832989,0.203 0.295141,0.0502 0.558804,0.0758 0.79099,0.077 0.585637,0.002 1.108297,-0.25433 1.56798,-0.76999 0.459636,-0.51566 0.702299,-1.30432 0.72799,-2.36597 -0.04202,-0.91349 -0.336019,-1.56448 -0.881988,-1.95298 -0.546016,-0.38849 -1.092009,-0.57749 -1.637979,-0.56699 -0.274185,0.0117 -0.607847,0.10034 -1.000988,0.266 -0.393182,0.16567 -0.712844,0.33833 -0.958987,0.51799 l -10.639863,1.34398 z"
             style="font-size:56px;font-variant:normal;font-weight:bold;font-stretch:normal;fill:#ffffff;font-family:Tekton Pro;-inkscape-font-specification:Tekton Pro Bold"
             id="path4022" />
          <path
             d="m 79.32713,99.443717 11.199856,-1.399982 c 0.197143,0.114348 0.404807,0.20768 0.622992,0.279996 0.218142,0.07235 0.439806,0.109682 0.664992,0.111999 1.044129,0.0035 1.853784,-0.22748 2.428967,-0.692992 0.575134,-0.465477 0.866797,-1.186467 0.87499,-2.162971 -0.01286,-0.758304 -0.295189,-1.425629 -0.84699,-2.001976 -0.55185,-0.576304 -1.296173,-0.879632 -2.23297,-0.909987 -0.367517,0.0082 -0.724512,0.08985 -1.070986,0.244996 -0.346516,0.155187 -0.661512,0.334851 -0.944988,0.538994 l -10.695863,1.343983 0,-9.35188 13.439827,-1.231984 c 0.303306,0.141195 0.606636,0.25086 0.909989,0.328995 0.303305,0.0782 0.634634,0.117862 0.993987,0.118999 0.992795,-0.01514 1.779117,-0.320798 2.358969,-0.916988 0.579798,-0.596128 0.876127,-1.391784 0.888989,-2.386969 -2.8e-5,-0.69529 -0.266025,-1.292615 -0.797991,-1.791977 -0.53202,-0.499292 -1.330009,-0.760621 -2.393968,-0.78399 -0.345354,0.01054 -0.704682,0.101535 -1.077987,0.272997 -0.373352,0.171534 -0.70468,0.360531 -0.993986,0.566992 L 79.32713,80.795957 c -0.0035,-0.600791 -0.248506,-1.093118 -0.734991,-1.476982 -0.486503,-0.383793 -1.193493,-0.582123 -2.120972,-0.594991 -0.890162,0.01054 -1.629818,0.199533 -2.218973,0.566993 -0.589162,0.367531 -0.894824,0.850524 -0.916987,1.448981 -0.0023,0.170365 0.01633,0.333696 0.056,0.489993 0.03966,0.156365 0.114328,0.291697 0.223997,0.405995 -0.2555,0.196031 -0.458497,0.476027 -0.608993,0.839989 -0.150501,0.364027 -0.2275,0.812021 -0.230996,1.343983 -0.0035,0.455024 0.0875,0.875018 0.272997,1.259983 0.185493,0.385024 0.486489,0.69302 0.902988,0.923989 l 0,8.959884 c -0.237997,0.236825 -0.461992,0.589138 -0.671985,1.056941 -0.21,0.467842 -0.321998,0.974167 -0.335994,1.518978 -3e-6,0.534344 0.084,1.019671 0.251997,1.455984 0.167994,0.436344 0.419992,0.809674 0.755993,1.119993 l -1.1e-5,10.5279 c -0.201836,0.31617 -0.372167,0.69183 -0.510994,1.12699 -0.138835,0.43516 -0.211167,0.88082 -0.216997,1.33698 0.02566,0.95199 0.324326,1.66598 0.895988,2.14197 0.571654,0.476 1.262311,0.71399 2.071974,0.71399 0.815481,-0.008 1.494471,-0.10383 2.036972,-0.28699 0.542485,-0.18317 0.92748,-0.40483 1.154987,-0.66499 l 15.791796,-1.11999 c 1.487453,0.0315 2.614437,-0.1435 3.380956,-0.52499 0.766461,-0.3815 1.151456,-1.15849 1.154986,-2.33097 -0.0117,-0.62416 -0.29636,-1.20982 -0.85399,-1.75698 -0.557688,-0.54716 -1.318344,-0.83882 -2.28197,-0.87499 -0.365188,0.004 -0.69885,0.0805 -1.000987,0.231 -0.302189,0.1505 -0.565852,0.3535 -0.79099,0.60899 l -15.455801,1.06399 z"
             style="font-size:56px;font-variant:normal;font-weight:bold;font-stretch:normal;fill:#ffffff;font-family:Tekton Pro;-inkscape-font-specification:Tekton Pro Bold"
             id="path4024" />
          <path
             d="m 113.97358,104.98765 c -0.24967,-1.47581 -0.60433,-3.01812 -1.06398,-4.62695 -0.45967,-1.608792 -1.03833,-3.501099 -1.73598,-5.676922 -1.05233,-3.480098 -1.80365,-6.123728 -2.25397,-7.930898 -0.45034,-1.807114 -0.66967,-3.064763 -0.65799,-3.772951 0.0198,-1.067454 -0.14584,-1.970442 -0.497,-2.708967 -0.35116,-0.738455 -1.00682,-1.123449 -1.96697,-1.154983 -1.01032,0.0047 -1.77565,0.233365 -2.29597,0.685991 -0.52033,0.452696 -0.78166,1.101353 -0.78399,1.945975 0.007,1.663677 0.30099,3.600317 0.88199,5.809926 0.58099,2.209663 1.40698,4.790293 2.47797,7.741899 1.12347,3.127809 2.06846,6.0141 2.83496,8.65889 0.76648,2.64481 1.16547,4.76111 1.19698,6.34892 -0.0117,0.48649 -0.0583,0.94149 -0.14,1.36498 -0.0817,0.4235 -0.12834,0.92049 -0.13999,1.49098 -0.021,0.53899 0.27299,1.04299 0.88199,1.51198 0.60898,0.46899 1.32297,0.69299 2.14197,0.67199 1.36147,0.0548 2.34845,-0.22283 2.96096,-0.83299 0.61248,-0.61016 0.91347,-1.54581 0.90299,-2.80696 -0.002,-0.84932 0.43631,-2.52463 1.31598,-5.02594 0.87964,-2.50129 2.21429,-5.43658 4.00395,-8.805883 0.63697,-1.221467 1.65896,-2.908444 3.06596,-5.060936 1.40696,-2.152448 3.24093,-4.665412 5.50193,-7.538902 0.34063,-0.454963 0.61129,-0.930957 0.81199,-1.427982 0.20063,-0.496963 0.3033,-0.972956 0.308,-1.427981 -0.0187,-1.000953 -0.27536,-1.728943 -0.76999,-2.183972 -0.49469,-0.45496 -1.11535,-0.678956 -1.86198,-0.671991 -0.67202,-0.03146 -1.28801,0.171533 -1.84798,0.608992 -0.56002,0.437529 -1.06401,1.298517 -1.51198,2.582967 -1.83283,2.809327 -3.86514,6.248612 -6.09692,10.317867 -2.23182,4.069298 -4.08213,8.040581 -5.55093,11.913851 z"
             style="font-size:56px;font-variant:normal;font-weight:bold;font-stretch:normal;fill:#ffffff;font-family:Tekton Pro;-inkscape-font-specification:Tekton Pro Bold"
             id="path4026" />
          <path
             d="m 141.01463,99.443717 11.19986,-1.399982 c 0.19714,0.114348 0.4048,0.20768 0.62299,0.279996 0.21814,0.07235 0.4398,0.109682 0.66499,0.111999 1.04413,0.0035 1.85378,-0.22748 2.42897,-0.692992 0.57513,-0.465477 0.86679,-1.186467 0.87499,-2.162971 -0.0129,-0.758304 -0.29519,-1.425629 -0.84699,-2.001976 -0.55185,-0.576304 -1.29618,-0.879632 -2.23297,-0.909987 -0.36752,0.0082 -0.72451,0.08985 -1.07099,0.244996 -0.34652,0.155187 -0.66151,0.334851 -0.94499,0.538994 l -10.69586,1.343983 0,-9.35188 13.43983,-1.231984 c 0.3033,0.141195 0.60663,0.25086 0.90999,0.328995 0.3033,0.0782 0.63463,0.117862 0.99398,0.118999 0.9928,-0.01514 1.77912,-0.320798 2.35897,-0.916988 0.5798,-0.596128 0.87613,-1.391784 0.88899,-2.386969 -3e-5,-0.69529 -0.26602,-1.292615 -0.79799,-1.791977 -0.53202,-0.499292 -1.33001,-0.760621 -2.39397,-0.78399 -0.34535,0.01054 -0.70468,0.101535 -1.07798,0.272997 -0.37336,0.171534 -0.70469,0.360531 -0.99399,0.566992 l -13.32783,1.175985 c -0.004,-0.600791 -0.24851,-1.093118 -0.73499,-1.476982 -0.4865,-0.383793 -1.19349,-0.582123 -2.12097,-0.594991 -0.89016,0.01054 -1.62982,0.199533 -2.21898,0.566993 -0.58916,0.367531 -0.89482,0.850524 -0.91698,1.448981 -0.002,0.170365 0.0163,0.333696 0.056,0.489993 0.0397,0.156365 0.11432,0.291697 0.22399,0.405995 -0.2555,0.196031 -0.45849,0.476027 -0.60899,0.839989 -0.1505,0.364027 -0.2275,0.812021 -0.231,1.343983 -0.003,0.455024 0.0875,0.875018 0.273,1.259983 0.1855,0.385024 0.48649,0.69302 0.90299,0.923989 l 0,8.959884 c -0.238,0.236825 -0.46199,0.589138 -0.67199,1.056941 -0.21,0.467842 -0.32199,0.974167 -0.33599,1.518978 0,0.534344 0.084,1.019671 0.252,1.455984 0.16799,0.436344 0.41999,0.809674 0.75599,1.119993 l -1e-5,10.5279 c -0.20184,0.31617 -0.37217,0.69183 -0.51099,1.12699 -0.13884,0.43516 -0.21117,0.88082 -0.217,1.33698 0.0257,0.95199 0.32433,1.66598 0.89599,2.14197 0.57165,0.476 1.26231,0.71399 2.07197,0.71399 0.81548,-0.008 1.49447,-0.10383 2.03697,-0.28699 0.54249,-0.18317 0.92748,-0.40483 1.15499,-0.66499 l 15.7918,-1.11999 c 1.48745,0.0315 2.61443,-0.1435 3.38095,-0.52499 0.76646,-0.3815 1.15146,-1.15849 1.15499,-2.33097 -0.0117,-0.62416 -0.29636,-1.20982 -0.85399,-1.75698 -0.55769,-0.54716 -1.31835,-0.83882 -2.28197,-0.87499 -0.36519,0.004 -0.69885,0.0805 -1.00099,0.231 -0.30219,0.1505 -0.56585,0.3535 -0.79099,0.60899 l -15.4558,1.06399 z"
             style="font-size:56px;font-variant:normal;font-weight:bold;font-stretch:normal;fill:#ffffff;font-family:Tekton Pro;-inkscape-font-specification:Tekton Pro Bold"
             id="path4028" />
          <path
             d="m 170.76444,84.362711 c 0.12132,-0.228632 0.24265,-0.485295 0.364,-0.76999 0.12132,-0.284631 0.18665,-0.569293 0.19599,-0.853989 -0.035,-1.128118 -0.357,-1.909774 -0.96598,-2.34497 -0.60901,-0.435126 -1.295,-0.642789 -2.05798,-0.622992 -0.85049,-0.01513 -1.61348,0.2112 -2.28897,0.678992 -0.67549,0.467862 -1.03249,1.268184 -1.07098,2.400968 0.008,0.287029 0.0618,0.567025 0.16099,0.83999 0.0992,0.273028 0.19483,0.497025 0.287,0.671991 l 0,27.831639 c -0.22867,0.16917 -0.41533,0.41884 -0.55999,0.74899 -0.14467,0.33017 -0.21934,0.73383 -0.224,1.21099 0.014,0.86682 0.30799,1.51315 0.88199,1.93897 0.57399,0.42583 1.34398,0.63816 2.30997,0.637 0.40832,-0.007 0.83765,-0.049 1.28798,-0.126 0.45032,-0.077 0.82365,-0.147 1.11999,-0.21 l 11.75985,-1.51198 c 0.26014,0.0852 0.5378,0.15283 0.83299,0.203 0.29514,0.0502 0.5588,0.0758 0.79099,0.077 0.58563,0.002 1.10829,-0.25433 1.56798,-0.76999 0.45963,-0.51566 0.7023,-1.30432 0.72799,-2.36597 -0.042,-0.91349 -0.33602,-1.56448 -0.88199,-1.95298 -0.54602,-0.38849 -1.09201,-0.57749 -1.63798,-0.56699 -0.27419,0.0117 -0.60785,0.10034 -1.00099,0.266 -0.39318,0.16567 -0.71284,0.33833 -0.95899,0.51799 l -10.63986,1.34398 z"
             style="font-size:56px;font-variant:normal;font-weight:bold;font-stretch:normal;fill:#ffffff;font-family:Tekton Pro;-inkscape-font-specification:Tekton Pro Bold"
             id="path4030"
             inkscape:connector-curvature="0" />
        </g>
        <g
           id="g3808"
           transform="translate(-325.45038,-1.2169168)">
          <path
             style="fill:#ffffff;fill-opacity:1;stroke:#ffffff;stroke-width:0.30000001;stroke-miterlimit:4;stroke-opacity:1;stroke-dasharray:none"
             d="m -724.09238,202.59594 c -1.52847,-0.0627 -3.11427,-0.0714 -4.54061,-0.69686 -3.18321,0.61883 -6.45362,0.16184 -9.62829,-0.29013 -1.66229,-0.28464 -3.38029,-0.67937 -4.83456,-1.52807 -0.29317,-0.66524 0.023,-1.56127 -1.04971,-1.25732 -2.05863,-0.0946 -4.43895,-0.39889 -5.81167,-2.11167 -0.66421,-1.45056 1.08258,-2.54475 2.34562,-2.58273 0.71338,0.0373 1.07503,-0.26911 0.30097,-0.68313 -0.58999,-1.46165 1.42528,-2.14807 2.50887,-2.49019 3.1856,-0.99209 6.60795,-0.93783 9.86468,-0.34841 1.08547,-0.15693 1.98437,-0.94773 3.1307,-0.9719 4.4227,-0.84229 8.97819,-0.64401 13.42668,-0.12145 1.43118,0.17259 2.86447,0.5469 4.09367,1.3055 1.27884,0.17907 2.58312,-0.13179 3.8637,0.17133 1.46996,0.20684 3.15936,0.51356 4.13171,1.73427 0.63852,1.20683 -1.8701,1.64433 -1.76025,1.85115 1.2123,0.0931 3.51303,0.57036 2.93012,2.24704 -0.3307,0.9144 -1.77888,1.11098 -2.22716,1.40041 1.10804,1.50947 -1.36056,1.98942 -2.37287,2.37626 -1.92326,0.54968 -3.9415,0.54843 -5.92033,0.52947 -1.18029,0.72129 -2.51099,1.20646 -3.96303,1.29148 -1.48916,0.17453 -2.99129,0.1709 -4.48824,0.17495 z m 1.75602,-0.13552 c 1.84694,-0.11489 3.76138,-0.13178 5.48784,-0.88234 0.82857,-1.30844 2.51449,-0.25597 3.72656,-0.54989 1.92802,-0.32138 4.07137,-0.44105 5.61597,-1.79663 0.35697,-0.60461 -1.22938,-1.41745 0.22902,-1.28603 1.5319,-0.0551 2.68382,-2.32196 0.76495,-2.84372 -0.66138,-0.38959 -2.29141,-0.33075 -2.44489,-0.60387 1.10192,-0.0935 3.27815,-1.13724 1.69456,-2.27818 -1.76131,-1.11472 -3.94864,-1.25896 -5.9857,-1.23565 -1.30632,0.38493 -2.08255,-0.55565 -3.2464,-0.91821 -3.96471,-0.88227 -8.07902,-1.02744 -12.12126,-0.71688 -1.96341,0.18745 -4.0274,0.38374 -5.73914,1.45282 -2.05254,-0.24773 -4.10414,-0.63057 -6.1821,-0.44033 -2.18101,0.11626 -4.46479,0.56884 -6.25083,1.87969 -0.91885,0.80572 1.29403,2.07008 -0.17318,1.93649 -1.29684,0.0359 -3.45562,1.1236 -2.40805,2.65965 1.33749,1.5065 3.50949,1.75118 5.41008,1.86308 0.74025,0.004 1.5148,-0.14361 1.15077,0.86514 0.69261,1.29625 2.64562,1.32137 3.94889,1.76888 3.14549,0.53639 6.38215,0.98298 9.56785,0.54708 1.2001,-0.31012 2.35053,0.56233 3.59402,0.49954 1.11668,0.10705 2.24195,0.0944 3.36104,0.0794 z m -1.80692,-0.0383 c -1.5112,-0.0238 -3.04349,-0.1825 -4.43598,-0.77559 -1.22002,0.21613 -2.40549,0.54575 -3.66026,0.35299 -3.27746,-0.0894 -6.61572,-0.45384 -9.68829,-1.64217 -1.00905,-0.21473 -0.6761,-1.589 -0.58887,-1.69033 -2.32549,0.015 -5.02271,-0.0508 -6.74783,-1.83937 -0.84836,-1.52689 1.08841,-2.67268 2.43293,-2.61956 0.53204,0.0712 1.30913,-0.25399 0.37596,-0.52858 -1.20388,-1.21121 0.88436,-2.30448 1.93554,-2.53709 3.25241,-1.07753 6.78741,-0.94473 10.09653,-0.20348 2.29917,-1.47415 5.12968,-1.48316 7.76228,-1.67047 3.44449,-0.0829 6.9346,0.0777 10.29415,0.8798 1.19283,0.82913 2.48616,1.23473 3.95429,0.82182 1.66364,0.17654 3.47617,0.2475 4.91863,1.20988 1.7021,1.15348 -0.69192,2.43212 -1.91156,2.31405 -1.6643,0.22165 0.84401,0.15568 1.35871,0.26422 1.41168,-0.15115 3.48352,1.48904 1.76905,2.65647 -0.43469,0.55261 -2.33508,0.56921 -2.05889,0.69936 1.65111,0.78178 -0.38128,2.24276 -1.45359,2.23284 -2.26364,0.70011 -4.68053,0.7482 -7.01697,0.4558 -0.0786,1.65377 -2.5083,1.13488 -3.66359,1.50485 -1.22045,0.1112 -2.44739,0.13772 -3.67224,0.11456 z m 2.09259,-0.15285 c 1.60741,-0.13495 3.30097,-0.11456 4.771,-0.87227 0.0938,-1.56922 2.24066,-0.17607 3.24904,-0.56218 1.96971,-0.0238 3.98551,-0.4065 5.7021,-1.40611 1.07467,-0.77557 -1.53505,-1.48329 -0.0747,-1.51365 1.28478,0.0585 3.34451,-1.43178 1.71109,-2.53878 -1.18483,-0.75862 -2.64884,-0.32373 -3.90775,-0.73986 0.94304,-0.56758 2.93121,-0.10662 3.27903,-1.56116 -0.60114,-1.50872 -2.68189,-1.6015 -4.10368,-1.86807 -1.50762,-0.3813 -3.36148,0.65947 -4.52691,-0.56781 -1.56812,-0.86382 -3.42653,-0.83553 -5.1573,-1.08388 -3.46771,-0.29692 -7.00246,-0.28277 -10.42186,0.41302 -1.59302,0.49233 -3.02558,1.5307 -4.74143,0.79911 -2.77036,-0.45983 -5.72861,-0.38886 -8.36412,0.66025 -1.16489,0.19254 -2.52045,1.60874 -1.07619,2.4705 0.6777,0.48648 -1.52252,0.39484 -2.03218,0.69649 -1.67135,0.31226 -1.55923,2.4822 -0.0919,3.00475 1.79927,0.96425 3.88829,0.92661 5.87113,0.96784 -1.0148,1.50114 1.03353,1.91525 2.10674,2.28206 2.76446,0.70851 5.63477,1.02194 8.48631,1.03591 1.29844,0.20003 2.51637,-0.87469 3.73802,-0.21296 1.33797,0.74617 2.92207,0.54068 4.39739,0.62712 0.39553,-0.003 0.7911,-0.0136 1.18617,-0.0303 z m -4.58666,-1.20997 c -1.94155,-0.14728 -3.92521,-0.29519 -5.75144,-1.02581 -0.96546,-0.82772 1.54933,-1.03884 0.96051,-0.20894 1.87832,0.80126 3.97144,0.83147 5.97905,0.96064 1.3882,0.0281 2.95257,0.0198 4.09142,-0.86694 0.97156,-0.38869 1.13644,0.60676 0.10664,0.68216 -1.72148,0.62899 -3.58912,0.49275 -5.38618,0.45889 z m 2.38718,-0.1031 c 1.01758,0.0206 2.98837,-0.34588 3.21505,-0.87731 -1.64071,1.10275 -3.72937,0.81392 -5.59865,0.79095 -1.80705,-0.13648 -3.69901,-0.25188 -5.35491,-1.03585 0.19524,-0.83683 -0.56369,0.0864 0.30268,0.21964 1.47369,0.5983 3.11045,0.64946 4.67466,0.84404 0.91845,0.0685 1.84063,0.0914 2.76117,0.0585 z m -11.47269,-2.5837 c -1.46493,-0.1465 -3.33586,-0.31671 -4.17337,-1.68453 -0.16291,-0.75306 1.84415,-1.19246 0.41417,-1.25794 -1.59719,-0.11285 -1.7297,-1.93842 -0.10804,-2.10523 1.70593,-0.66638 3.56792,-0.8671 5.38728,-0.74134 -0.60651,0.57081 -2.33063,0.10421 -3.30983,0.56927 -0.98135,0.0114 -3.39125,1.24035 -1.51066,1.89932 0.70232,0.13645 2.49816,0.48136 0.9151,0.79555 -1.40586,0.78616 0.11074,1.84137 1.08553,1.96417 1.14279,0.33265 2.36181,0.29422 3.52174,0.0744 1.39552,0.25332 -1.12972,0.59996 -2.22192,0.48629 z m 1.00411,-0.13794 c 0.56112,0.0161 1.76596,-0.32981 0.54273,-0.10337 -1.7397,0.18879 -3.75554,0.0225 -5.04631,-1.29107 -0.59622,-0.93712 2.47598,-1.35119 0.55986,-1.45225 -1.21846,0.11278 -2.32957,-1.6307 -0.63353,-1.8831 1.53217,-0.62026 3.20212,-0.82331 4.84573,-0.80105 -1.93073,-0.0903 -3.97402,0.17067 -5.65335,1.1724 -1.22826,1.21168 1.92704,1.50537 1.7636,1.71664 -1.38517,0.26656 -1.1054,2.06858 0.24852,2.12623 1.06444,0.43296 2.23079,0.5689 3.37275,0.51557 z m 20.3388,-0.15325 c -0.90204,0.17624 -0.61155,-0.58969 0.1322,-0.30448 1.05816,0.073 3.88194,0.0335 3.05676,-1.59391 -0.9537,-0.99859 -2.5713,-0.38384 -3.61354,-0.86612 0.98643,-0.0717 2.63366,-1.36049 0.80579,-1.80766 -1.79684,-0.72285 -3.7736,-0.81479 -5.68543,-0.69373 -1.43675,-1.31845 -3.48031,-1.22579 -5.29437,-1.38328 -1.11051,-0.0412 -2.24944,0.0506 -3.28781,0.47303 -0.24792,0.91601 -2.30389,0.42888 -0.8815,-0.19912 2.23632,-0.88911 4.71737,-0.56753 7.0493,-0.35206 1.58069,-0.0617 2.80641,1.1733 4.33863,1.14383 1.54528,-0.078 3.10062,0.2662 4.55946,0.75333 1.31969,0.24526 1.62516,1.59589 0.23499,1.94783 1.10595,0.15172 3.08591,0.1977 3.09475,1.69436 -0.81916,1.36185 -2.78135,1.1316 -4.18352,1.19854 l -0.16339,-0.004 -0.16235,-0.007 3e-5,-2e-5 z m 1.57481,-0.14445 c 1.02992,0.22142 3.396,-0.86607 2.01653,-1.97922 -0.69348,-0.59476 -2.40895,-0.55077 -2.71432,-0.72117 1.30437,-0.36847 1.13375,-1.90815 -0.25584,-1.94651 -1.78249,-0.64461 -3.70354,-0.73564 -5.58124,-0.70501 -1.08419,-1.09545 -2.76271,-1.01619 -4.1832,-1.23427 -1.81204,-0.13441 -3.77353,-0.27582 -5.44293,0.56107 -0.66234,0.79566 0.91965,-0.64234 1.40489,-0.43933 2.09596,-0.35251 4.25963,-0.12828 6.33677,0.24394 1.32454,0.39215 2.34722,1.42489 3.8532,0.89316 1.52666,0.21592 3.20891,0.31173 4.51024,1.24261 1.38367,1.04959 -2.59403,1.53797 -0.7153,1.5126 1.10589,-0.11504 3.9023,0.4579 2.77029,1.94314 -0.84458,0.82149 -3.27969,0.51016 -3.53447,0.64401 0.51101,0.0339 1.02457,0.0129 1.53538,-0.015 z"
             id="path3802"
             inkscape:connector-curvature="0" />
          <path
             sodipodi:nodetypes="ccc"
             transform="matrix(1.8677069,0,0,0.53541592,-1122.2584,175.51603)"
             inkscape:connector-curvature="0"
             id="path3804"
             d="m 227.32143,38.491071 c 16.42857,0.178571 19.33259,17.321485 20,21.562501 4.06968,-9.170619 11.60715,-9.776787 11.60715,-9.776787"
             style="fill:none;stroke:#ffffff;stroke-width:1px;stroke-linecap:round;stroke-linejoin:miter;stroke-opacity:1" />
          <path
             transform="matrix(1.8677069,0,0,0.53541592,-1122.2584,175.51603)"
             inkscape:connector-curvature="0"
             id="path3806"
             d="m 257.41071,48.491071 2.09822,1.875 L 257.5,52.375"
             style="fill:none;stroke:#ffffff;stroke-width:1px;stroke-linecap:round;stroke-linejoin:miter;stroke-opacity:1" />
          <path
             style="fill:#ffffff;fill-opacity:1;stroke:#ffffff;stroke-width:0.30000001;stroke-miterlimit:4;stroke-opacity:1;stroke-dasharray:none"
             d="m -369.39483,231.94821 c -1.52847,-0.0627 -3.11427,-0.0714 -4.54061,-0.69686 -3.18321,0.61883 -6.45362,0.16184 -9.62829,-0.29013 -1.66229,-0.28464 -3.38029,-0.67937 -4.83456,-1.52807 -0.29317,-0.66524 0.023,-1.56127 -1.04971,-1.25732 -2.05863,-0.0947 -4.43895,-0.39889 -5.81167,-2.11167 -0.66421,-1.45056 1.08258,-2.54475 2.34562,-2.58273 0.71338,0.0373 1.07503,-0.26911 0.30097,-0.68313 -0.58999,-1.46165 1.42528,-2.14807 2.50887,-2.49019 3.1856,-0.99209 6.60795,-0.93783 9.86468,-0.34841 1.08547,-0.15693 1.98437,-0.94773 3.1307,-0.9719 4.4227,-0.84229 8.97819,-0.64401 13.42668,-0.12145 1.43118,0.17259 2.86447,0.5469 4.09367,1.3055 1.27884,0.17907 2.58312,-0.13179 3.8637,0.17133 1.46996,0.20684 3.15936,0.51356 4.13171,1.73427 0.63852,1.20683 -1.8701,1.64433 -1.76025,1.85115 1.2123,0.0931 3.51303,0.57036 2.93012,2.24704 -0.3307,0.9144 -1.77888,1.11098 -2.22716,1.40041 1.10804,1.50947 -1.36056,1.98942 -2.37287,2.37626 -1.92326,0.54968 -3.9415,0.54843 -5.92033,0.52947 -1.18029,0.72129 -2.51099,1.20646 -3.96303,1.29148 -1.48916,0.17453 -2.99129,0.1709 -4.48824,0.17495 z m 1.75602,-0.13552 c 1.84694,-0.11489 3.76138,-0.13178 5.48784,-0.88234 0.82857,-1.30844 2.51449,-0.25597 3.72656,-0.54989 1.92802,-0.32138 4.07137,-0.44105 5.61597,-1.79663 0.35697,-0.60461 -1.22938,-1.41745 0.22902,-1.28603 1.5319,-0.0551 2.68382,-2.32196 0.76495,-2.84372 -0.66138,-0.38959 -2.29141,-0.33075 -2.44489,-0.60387 1.10192,-0.0935 3.27815,-1.13724 1.69455,-2.27818 -1.7613,-1.11472 -3.94863,-1.25896 -5.98569,-1.23565 -1.30632,0.38493 -2.08255,-0.55565 -3.2464,-0.91821 -3.96471,-0.88227 -8.07902,-1.02744 -12.12126,-0.71688 -1.96341,0.18745 -4.0274,0.38374 -5.73914,1.45282 -2.05254,-0.24773 -4.10414,-0.63057 -6.1821,-0.44034 -2.18101,0.11627 -4.46479,0.56885 -6.25083,1.8797 -0.91885,0.80572 1.29403,2.07008 -0.17318,1.93649 -1.29684,0.0359 -3.45562,1.1236 -2.40805,2.65965 1.33749,1.5065 3.50949,1.75118 5.41008,1.86308 0.74028,0.004 1.51476,-0.14361 1.15073,0.86514 0.69267,1.29623 2.64564,1.32138 3.94893,1.76888 3.14549,0.53639 6.38215,0.98298 9.56785,0.54708 1.2001,-0.31012 2.35053,0.56233 3.59402,0.49954 1.11668,0.10705 2.24195,0.0944 3.36104,0.0794 z m -1.80692,-0.0383 c -1.66746,0.1411 -3.25857,-0.56866 -4.86386,-0.64555 -2.03847,0.41379 -4.11821,0.20481 -6.1732,0.0537 -2.31299,-0.19981 -4.6103,-0.6763 -6.79375,-1.45102 -0.86,-0.24912 -0.57666,-1.56659 -0.6483,-1.72669 -2.29414,0.0507 -4.94305,-0.0749 -6.64212,-1.82492 -0.84836,-1.52689 1.08841,-2.67268 2.43293,-2.61956 0.53204,0.0712 1.30913,-0.25399 0.37596,-0.52858 -1.20388,-1.21121 0.88436,-2.30448 1.93554,-2.53709 3.25241,-1.07753 6.78741,-0.94473 10.09653,-0.20348 2.29917,-1.47415 5.12968,-1.48316 7.76228,-1.67047 3.44449,-0.0829 6.9346,0.0777 10.29415,0.8798 1.19283,0.82913 2.48616,1.23473 3.95428,0.82182 1.66365,0.17654 3.47617,0.2475 4.91864,1.20988 1.7021,1.15348 -0.69192,2.43212 -1.91156,2.31405 -1.6643,0.22165 0.84401,0.15568 1.35871,0.26422 1.41168,-0.15115 3.48352,1.48904 1.76905,2.65647 -0.43469,0.55261 -2.33508,0.56921 -2.05889,0.69936 1.65111,0.78178 -0.38128,2.24276 -1.45359,2.23284 -2.26364,0.70011 -4.68053,0.7482 -7.01697,0.4558 -0.0786,1.65377 -2.5083,1.13488 -3.66359,1.50485 -1.22045,0.1112 -2.44739,0.13772 -3.67224,0.11456 z m 2.09259,-0.15285 c 1.60741,-0.13495 3.30097,-0.11456 4.771,-0.87228 0.0938,-1.56921 2.24066,-0.17606 3.24904,-0.56217 1.96971,-0.0238 3.98551,-0.4065 5.7021,-1.40611 1.07467,-0.77557 -1.53505,-1.48329 -0.0747,-1.51365 1.28478,0.0585 3.34451,-1.43178 1.71109,-2.53878 -1.18483,-0.75862 -2.64884,-0.32373 -3.90775,-0.73986 0.94304,-0.56758 2.93121,-0.10662 3.27903,-1.56116 -0.60114,-1.50872 -2.68189,-1.6015 -4.10368,-1.86807 -1.50762,-0.3813 -3.36148,0.65947 -4.52691,-0.56781 -1.56812,-0.86382 -3.42653,-0.83553 -5.1573,-1.08388 -3.46771,-0.29692 -7.00246,-0.28277 -10.42186,0.41302 -1.59302,0.49233 -3.02558,1.5307 -4.74143,0.79911 -2.77036,-0.45983 -5.72861,-0.38886 -8.36412,0.66025 -1.16489,0.19254 -2.52045,1.60874 -1.07619,2.4705 0.6777,0.48648 -1.52252,0.39484 -2.03218,0.69649 -1.67135,0.31226 -1.55923,2.4822 -0.0919,3.00475 1.79927,0.96425 3.88829,0.92661 5.87113,0.96784 -1.0148,1.50114 1.03353,1.91525 2.10674,2.28206 2.76446,0.70851 5.63477,1.02194 8.48631,1.03591 1.29844,0.20003 2.51637,-0.87469 3.73802,-0.21296 1.33797,0.74617 2.92207,0.54068 4.39739,0.62712 0.39553,-0.003 0.7911,-0.0136 1.18617,-0.0303 z m -4.58666,-1.20997 c -1.94155,-0.14728 -3.92521,-0.29519 -5.75144,-1.02581 -0.96546,-0.82772 1.54933,-1.03884 0.96051,-0.20894 1.80767,0.77581 3.82389,0.82306 5.75829,0.94797 1.51719,0.0414 3.11586,-0.0893 4.44641,-0.88706 1.36468,-0.28704 0.2419,0.98058 -0.51378,0.87637 -1.59623,0.42647 -3.26583,0.34025 -4.89999,0.29747 z m -9.08551,-2.6868 c -1.46493,-0.1465 -3.33586,-0.31671 -4.17337,-1.68453 -0.16291,-0.75306 1.84415,-1.19246 0.41417,-1.25794 -1.59719,-0.11285 -1.7297,-1.93842 -0.10804,-2.10523 1.70593,-0.66638 3.56792,-0.8671 5.38728,-0.74134 -0.60651,0.57081 -2.33063,0.10421 -3.30983,0.56927 -0.98135,0.0114 -3.39125,1.24035 -1.51066,1.89932 0.70232,0.13645 2.49816,0.48136 0.9151,0.79555 -1.40586,0.78616 0.11074,1.84137 1.08553,1.96417 1.14279,0.33265 2.36181,0.29422 3.52174,0.0744 1.39552,0.25332 -1.12972,0.59996 -2.22192,0.48629 z m 1.00411,-0.13794 c 0.56112,0.0161 1.76596,-0.32981 0.54273,-0.10337 -1.7397,0.18879 -3.75554,0.0225 -5.04631,-1.29107 -0.59622,-0.93712 2.47598,-1.35119 0.55986,-1.45225 -1.21846,0.11278 -2.32957,-1.6307 -0.63353,-1.8831 1.53217,-0.62026 3.20212,-0.82331 4.84573,-0.80105 -1.93073,-0.0903 -3.97402,0.17067 -5.65335,1.1724 -1.22826,1.21168 1.92704,1.50537 1.7636,1.71664 -1.38517,0.26656 -1.1054,2.06858 0.24852,2.12623 1.06444,0.43296 2.23079,0.5689 3.37275,0.51557 z m 20.3388,-0.15325 c -0.90204,0.17624 -0.61155,-0.58969 0.1322,-0.30448 1.05816,0.073 3.88195,0.0335 3.05676,-1.59391 -0.9537,-0.99859 -2.5713,-0.38384 -3.61354,-0.86612 0.98643,-0.0717 2.63366,-1.36049 0.80579,-1.80766 -1.79684,-0.72285 -3.7736,-0.81479 -5.68543,-0.69373 -1.43675,-1.31845 -3.48031,-1.22579 -5.29437,-1.38328 -1.11051,-0.0412 -2.24944,0.0506 -3.28781,0.47303 -0.24792,0.91601 -2.30389,0.42888 -0.8815,-0.19912 2.23632,-0.88911 4.71737,-0.56753 7.0493,-0.35206 1.58069,-0.0617 2.80641,1.1733 4.33863,1.14383 1.54528,-0.078 3.10062,0.2662 4.55946,0.75333 1.31969,0.24526 1.62516,1.59589 0.23499,1.94783 1.10595,0.15172 3.08591,0.1977 3.09475,1.69436 -0.81916,1.36185 -2.78135,1.1316 -4.18352,1.19854 l -0.16339,-0.004 -0.16235,-0.007 3e-5,-2e-5 z m 1.57481,-0.14445 c 1.02992,0.22142 3.396,-0.86607 2.01653,-1.97922 -0.69348,-0.59476 -2.40895,-0.55077 -2.71432,-0.72117 1.30437,-0.36847 1.13375,-1.90815 -0.25584,-1.94651 -1.78249,-0.64461 -3.70354,-0.73564 -5.58124,-0.70501 -1.08419,-1.09545 -2.76271,-1.01619 -4.1832,-1.23427 -1.81204,-0.13441 -3.77353,-0.27582 -5.44293,0.56107 -0.66234,0.79566 0.91965,-0.64234 1.40489,-0.43933 2.09596,-0.35251 4.25963,-0.12828 6.33677,0.24394 1.32454,0.39215 2.34722,1.42489 3.8532,0.89316 1.52666,0.21592 3.20891,0.31173 4.51024,1.24261 1.38367,1.04959 -2.59403,1.53797 -0.7153,1.5126 1.10589,-0.11504 3.9023,0.4579 2.77029,1.94314 -0.84458,0.82149 -3.27969,0.51016 -3.53447,0.64401 0.51101,0.0339 1.02457,0.0129 1.53538,-0.015 z"
             id="path3854"
             inkscape:connector-curvature="0" />
        </g>
        <g
           id="g3875">
          <path
             transform="matrix(1.8677069,0,0,0.53541592,-1122.2584,175.51603)"
             inkscape:connector-curvature="0"
             id="path3819"
             d="m 265.26786,109.33929 3.83928,14.46428"
             style="fill:none;stroke:#ffffff;stroke-width:1px;stroke-linecap:butt;stroke-linejoin:miter;stroke-opacity:1" />
          <g
             id="g3856">
            <path
               style="fill:none;stroke:#ffffff;stroke-width:1px;stroke-linecap:butt;stroke-linejoin:miter;stroke-opacity:1"
               d="m 267.81669,153.75349 -17.68533,-47.32027 c 10.6268,-2.29031 10.45912,5.76655 21.78088,1.61086 0.93078,-0.34165 3.65785,14.29139 3.65785,14.29139 -13.36381,4.93188 -11.41388,-1.28304 -19.62269,-0.65433"
               id="path3813"
               inkscape:connector-curvature="0"
               transform="matrix(1.8677069,0,0,0.53541592,-1122.2584,175.51603)"
               sodipodi:nodetypes="ccscc" />
            <path
               style="fill:none;stroke:#ffffff;stroke-width:1px;stroke-linecap:butt;stroke-linejoin:miter;stroke-opacity:1"
               d="M 254.28571,106.16964 259.86607,121.75"
               id="path3815"
               inkscape:connector-curvature="0"
               transform="matrix(1.8677069,0,0,0.53541592,-1122.2584,175.51603)" />
            <path
               style="fill:none;stroke:#ffffff;stroke-width:1px;stroke-linecap:butt;stroke-linejoin:miter;stroke-opacity:1"
               d="m 259.95536,107.73214 4.55357,15.89286"
               id="path3817"
               inkscape:connector-curvature="0"
               transform="matrix(1.8677069,0,0,0.53541592,-1122.2584,175.51603)" />
            <path
               style="fill:none;stroke:#ffffff;stroke-width:1px;stroke-linecap:butt;stroke-linejoin:miter;stroke-opacity:1"
               d="M 269.19643,108.9375 272.5,123.17857"
               id="path3821"
               inkscape:connector-curvature="0"
               transform="matrix(1.8677069,0,0,0.53541592,-1122.2584,175.51603)" />
            <path
               style="fill:none;stroke:#ffffff;stroke-width:1px;stroke-linecap:butt;stroke-linejoin:miter;stroke-opacity:1"
               d="m 273.25893,111.21429 c -15.2619,4.84857 -8.83108,-2.03224 -21.65179,-1.47322"
               id="path3823"
               inkscape:connector-curvature="0"
               transform="matrix(1.8677069,0,0,0.53541592,-1122.2584,175.51603)"
               sodipodi:nodetypes="cc" />
            <path
               sodipodi:nodetypes="cc"
               inkscape:connector-curvature="0"
               id="path3825"
               d="m -610.55673,237.38047 c -28.10511,2.59601 -16.26262,-1.08809 -39.87222,-0.78878"
               style="fill:none;stroke:#ffffff;stroke-width:0.99296492000000003px;stroke-linecap:butt;stroke-linejoin:miter;stroke-opacity:1" />
            <path
               style="fill:none;stroke:#ffffff;stroke-width:0.97621190999999996px;stroke-linecap:butt;stroke-linejoin:miter;stroke-opacity:1"
               d="m -608.80575,239.34047 c -27.16474,2.59601 -15.71849,-1.08809 -38.53814,-0.78878"
               id="path3827"
               inkscape:connector-curvature="0"
               sodipodi:nodetypes="cc" />
            <path
               style="opacity:0.98999999000000005;fill-rule:nonzero;stroke-width:0.29999999999999999;stroke-linecap:round;stroke-linejoin:round;stroke-dashoffset:0;stroke-miterlimit:4;stroke-dasharray:none;fill:#ffffff;fill-opacity:1;stroke:none"
               d="m -654.74804,232.52826 7.4208,0 1.6676,1.57755 -7.25404,0.11951 z"
               id="rect3829"
               inkscape:connector-curvature="0"
               sodipodi:nodetypes="ccccc" />
            <path
               sodipodi:nodetypes="ccccc"
               inkscape:connector-curvature="0"
               id="path3832"
               d="m -649.49511,236.80681 7.4208,0 1.6676,1.57755 -7.25404,0.11951 z"
               style="opacity:0.98999999;fill:#ffffff;fill-opacity:1;fill-rule:nonzero;stroke:none" />
            <path
               style="opacity:0.98999999;fill:#ffffff;fill-opacity:1;fill-rule:nonzero;stroke:none"
               d="m -644.49233,234.39266 8.92164,0.74098 2.9183,2.55755 -8.50474,-0.86049 z"
               id="path3834"
               inkscape:connector-curvature="0"
               sodipodi:nodetypes="ccccc" />
            <path
               sodipodi:nodetypes="ccccc"
               inkscape:connector-curvature="0"
               id="path3836"
               d="m -636.32111,233.36486 8.42136,0.50195 2.33464,2.00779 -7.92108,-0.31073 z"
               style="opacity:0.98999999;fill:#ffffff;fill-opacity:1;fill-rule:nonzero;stroke:none" />
            <path
               style="opacity:0.98999999;fill:#ffffff;fill-opacity:1;fill-rule:nonzero;stroke:none"
               d="m -630.9848,238.21706 7.4208,0 1.75098,2.0795 -7.33742,-0.38244 z"
               id="path3838"
               inkscape:connector-curvature="0"
               sodipodi:nodetypes="ccccc" />
            <path
               sodipodi:nodetypes="ccccc"
               inkscape:connector-curvature="0"
               id="path3840"
               d="m -638.65574,238.67121 8.08784,0.81268 1.91774,2.17512 -8.08784,-0.8844 z"
               style="opacity:0.98999999;fill:#ffffff;fill-opacity:1;fill-rule:nonzero;stroke:none" />
            <path
               style="opacity:0.98999999;fill:#ffffff;fill-opacity:1;fill-rule:nonzero;stroke:none"
               d="m -621.4795,240.20097 6.25348,-0.26293 1.6676,1.57755 -5.58644,0.35853 z"
               id="path3842"
               inkscape:connector-curvature="0"
               sodipodi:nodetypes="ccccc" />
            <path
               sodipodi:nodetypes="ccccc"
               inkscape:connector-curvature="0"
               id="path3844"
               d="m -624.98145,236.18535 6.92052,-0.47805 2.16788,2.0556 -6.75376,0.45414 z"
               style="opacity:0.98999999;fill:#ffffff;fill-opacity:1;fill-rule:nonzero;stroke:none" />
            <path
               style="opacity:0.98999999;fill:#ffffff;fill-opacity:1;fill-rule:nonzero;stroke:none"
               d="m -620.72908,233.65169 7.4208,0 1.6676,1.57755 -7.25404,0.11951 z"
               id="path3846"
               inkscape:connector-curvature="0"
               sodipodi:nodetypes="ccccc" />
            <path
               sodipodi:nodetypes="ccccc"
               inkscape:connector-curvature="0"
               id="path3848"
               d="m -616.72685,237.83463 5.91996,-0.45415 2.25126,1.76877 -6.1701,0.71707 z"
               style="opacity:0.98999999;fill:#ffffff;fill-opacity:1;fill-rule:nonzero;stroke:none" />
          </g>
        </g>
        <path
           style="fill:none;stroke:#ffffff;stroke-width:1.30827463;stroke-linecap:round;stroke-linejoin:miter;stroke-miterlimit:4;stroke-opacity:1;stroke-dasharray:none"
           d="m -650.12167,241.69692 c -12.53727,0 -24.81001,0.55256 -36.2172,-8.73043"
           id="path3850"
           inkscape:connector-curvature="0"
           sodipodi:nodetypes="cc" />
        <path
           style="fill:none;stroke:#ffffff;stroke-width:1.5;stroke-linecap:round;stroke-linejoin:miter;stroke-miterlimit:4;stroke-opacity:1;stroke-dasharray:none"
           d="m -652.52823,240.12433 5.48475,1.5232 -5.53521,1.61319"
           id="path3852"
           inkscape:connector-curvature="0"
           sodipodi:nodetypes="ccc" />
      </g>
    </g>
  </g>
</svg>
