<?xml version="1.0" encoding="UTF-8" standalone="no"?>
<!-- Created with Inkscape (http://www.inkscape.org/) -->

<svg
   xmlns:dc="http://purl.org/dc/elements/1.1/"
   xmlns:cc="http://creativecommons.org/ns#"
   xmlns:rdf="http://www.w3.org/1999/02/22-rdf-syntax-ns#"
   xmlns:svg="http://www.w3.org/2000/svg"
   xmlns="http://www.w3.org/2000/svg"
   xmlns:sodipodi="http://sodipodi.sourceforge.net/DTD/sodipodi-0.dtd"
   xmlns:inkscape="http://www.inkscape.org/namespaces/inkscape"
   width="50"
   height="50"
   id="svg3930"
   version="1.1"
   inkscape:version="0.48.2 r9819"
   sodipodi:docname="pause.svg">
  <defs
     id="defs3932" />
  <sodipodi:namedview
     id="base"
     pagecolor="#ffffff"
     bordercolor="#666666"
     borderopacity="1.0"
     inkscape:pageopacity="0.0"
     inkscape:pageshadow="2"
     inkscape:zoom="11.2"
     inkscape:cx="19.639097"
     inkscape:cy="18.597787"
     inkscape:document-units="px"
     inkscape:current-layer="g4469"
     showgrid="false"
     showguides="true"
     inkscape:guide-bbox="true"
     inkscape:window-width="1680"
     inkscape:window-height="994"
     inkscape:window-x="-4"
     inkscape:window-y="-4"
     inkscape:window-maximized="1"
     fit-margin-top="0"
     fit-margin-left="0"
     fit-margin-right="0"
     fit-margin-bottom="0" />
  <metadata
     id="metadata3935">
    <rdf:RDF>
      <cc:Work
         rdf:about="">
        <dc:format>image/svg+xml</dc:format>
        <dc:type
           rdf:resource="http://purl.org/dc/dcmitype/StillImage" />
        <dc:title />
      </cc:Work>
    </rdf:RDF>
  </metadata>
  <g
     inkscape:label="Capa 1"
     inkscape:groupmode="layer"
     id="layer1"
     transform="translate(13.870535,-864.79911)">
    <g
       id="g4469">
      <path
         transform="matrix(0.06467407,0,0,0.06467407,-13.498227,851.73003)"
         d="m 757.14285,589.50507 a 377.14285,377.14285 0 1 1 -754.2857028,0 377.14285,377.14285 0 1 1 754.2857028,0 z"
         sodipodi:ry="377.14285"
         sodipodi:rx="377.14285"
         sodipodi:cy="589.50507"
         sodipodi:cx="380"
         id="path3938"
         style="opacity:0.98999999000000005;fill:#ff6e6e;fill-opacity:0.29803923;fill-rule:nonzero;stroke:#000000;stroke-width:22;stroke-linecap:butt;stroke-linejoin:round;stroke-miterlimit:4;stroke-opacity:1;stroke-dasharray:none;stroke-dashoffset:0"
         sodipodi:type="arc" />
      <path
         sodipodi:nodetypes="cssc"
         inkscape:connector-curvature="0"
         id="path3942"
         d="m 13.188393,867.65828 c 0,0 19.216867,2.78608 19.797118,21.58539 0.395061,12.79939 0.966666,0.53547 -8.353042,-11.77266 -9.019188,-11.91124 -22.3818514,-9.59523 -11.444076,-9.81273 z"
         style="fill:#ffffff;fill-opacity:1;stroke:none" />
      <path
         sodipodi:nodetypes="csscc"
         inkscape:connector-curvature="0"
         id="path4452"
         d="m 28.325217,907.10301 c -4.413967,4.41397 -10.511808,7.14407 -17.247297,7.14407 -13.4709786,0 -24.391364,-10.92038 -24.391364,-24.39136 0,-6.73549 2.730097,-12.83332 7.1440652,-17.24729 -8.3282692,23.14662 17.6615068,43.32462 34.4945958,34.49458 z"
         style="opacity:0.98999999;fill:#000003;fill-opacity:0.36898421;fill-rule:nonzero;stroke:none" />
      <g
         id="g3768"
         transform="translate(0.62499998,0)">
        <path
           sodipodi:nodetypes="zzzzz"
           inkscape:connector-curvature="0"
           id="path3780-7"
           d="m 13.339326,907.14672 c -0.991128,-0.7609 -1.099315,-32.844 -0.253003,-33.93242 0.846313,-1.08843 7.723783,-0.88353 8.345863,-0.0372 0.622079,0.84636 0.657632,32.91784 0,33.85646 -0.657633,0.93861 -7.101731,0.87401 -8.09286,0.11307 z"
           style="fill:#ff7f2a;stroke:#000000;stroke-width:0.83406657;stroke-linecap:butt;stroke-linejoin:miter;stroke-miterlimit:4;stroke-opacity:1;stroke-dasharray:none" />
        <path
           sodipodi:nodetypes="czczc"
           inkscape:connector-curvature="0"
           id="path4463-6"
           d="m 15.954625,873.43051 c 2.699972,-0.071 4.210922,0.35581 4.482347,0.51398 0.271427,0.15817 0.283733,1.89743 0.345966,4.38802 -0.509876,-1.94266 -0.233846,-2.50205 -1.087139,-3.5527 -0.853293,-1.05065 -3.741174,-1.3493 -3.741174,-1.3493 z"
           style="fill:#ffffff;fill-opacity:1;stroke:none" />
        <path
           sodipodi:nodetypes="cscsc"
           inkscape:connector-curvature="0"
           id="path4467-5"
           d="m 12.944991,901.02691 c 0.05028,2.13954 -0.475199,5.22336 0.56939,6.23122 0.53592,0.51707 1.951445,0.51846 6.646045,0.59522 -3.05964,-0.61655 -4.515231,-1.2656 -5.343725,-2.27587 -0.828494,-1.01027 -1.320447,-2.48916 -1.87171,-4.55057 z"
           style="fill:#000000;fill-opacity:0.48663103;stroke:none" />
      </g>
      <g
         id="g3773"
         transform="translate(-12.410714,0)">
        <path
           style="fill:#ff7f2a;stroke:#000000;stroke-width:0.83406657;stroke-linecap:butt;stroke-linejoin:miter;stroke-miterlimit:4;stroke-opacity:1;stroke-dasharray:none"
           d="m 12.803612,907.14672 c -0.991128,-0.7609 -1.099315,-32.844 -0.253003,-33.93242 0.846313,-1.08843 7.723783,-0.88353 8.345863,-0.0372 0.622079,0.84636 0.657632,32.91784 0,33.85646 -0.657633,0.93861 -7.101731,0.87401 -8.09286,0.11307 z"
           id="path3775"
           inkscape:connector-curvature="0"
           sodipodi:nodetypes="zzzzz" />
        <path
           style="fill:#ffffff;fill-opacity:1;stroke:none"
           d="m 15.418911,873.43051 c 2.699972,-0.071 4.210922,0.35581 4.482347,0.51398 0.271427,0.15817 0.283733,1.89743 0.345966,4.38802 -0.509876,-1.94266 -0.233846,-2.50205 -1.087139,-3.5527 -0.853293,-1.05065 -3.741174,-1.3493 -3.741174,-1.3493 z"
           id="path3777"
           inkscape:connector-curvature="0"
           sodipodi:nodetypes="czczc" />
        <path
           style="fill:#000000;fill-opacity:0.48663103;stroke:none"
           d="m 12.409277,901.02691 c 0.05028,2.13954 -0.475199,5.22336 0.56939,6.23122 0.53592,0.51707 1.951445,0.51846 6.646045,0.59522 -3.05964,-0.61655 -4.515231,-1.2656 -5.343725,-2.27587 -0.828494,-1.01027 -1.320447,-2.48916 -1.87171,-4.55057 z"
           id="path3779"
           inkscape:connector-curvature="0"
           sodipodi:nodetypes="cscsc" />
      </g>
    </g>
  </g>
</svg>
