<?xml version="1.0" encoding="UTF-8" standalone="no"?>
<!-- Created with Inkscape (http://www.inkscape.org/) -->

<svg
   xmlns:dc="http://purl.org/dc/elements/1.1/"
   xmlns:cc="http://creativecommons.org/ns#"
   xmlns:rdf="http://www.w3.org/1999/02/22-rdf-syntax-ns#"
   xmlns:svg="http://www.w3.org/2000/svg"
   xmlns="http://www.w3.org/2000/svg"
   xmlns:sodipodi="http://sodipodi.sourceforge.net/DTD/sodipodi-0.dtd"
   xmlns:inkscape="http://www.inkscape.org/namespaces/inkscape"
   width="957.6394"
   height="928.01538"
   id="svg2"
   version="1.1"
   inkscape:version="0.48.3.1 r9886"
   sodipodi:docname="pelusablueprint.svg"
   inkscape:export-filename="/home/cesar/pelusablueprint.png"
   inkscape:export-xdpi="14.062267"
   inkscape:export-ydpi="14.062267">
  <defs
     id="defs4">
    <inkscape:perspective
       sodipodi:type="inkscape:persp3d"
       inkscape:vp_x="0 : 526.18109 : 1"
       inkscape:vp_y="0 : 1000 : 0"
       inkscape:vp_z="744.09448 : 526.18109 : 1"
       inkscape:persp3d-origin="372.04724 : 350.78739 : 1"
       id="perspective3812" />
  </defs>
  <sodipodi:namedview
     id="base"
     pagecolor="#ffffff"
     bordercolor="#666666"
     borderopacity="1.0"
     inkscape:pageopacity="0.0"
     inkscape:pageshadow="2"
     inkscape:zoom="0.7"
     inkscape:cx="335.97941"
     inkscape:cy="232.6989"
     inkscape:document-units="px"
     inkscape:current-layer="layer1"
     showgrid="false"
     inkscape:window-width="1215"
     inkscape:window-height="1000"
     inkscape:window-x="65"
     inkscape:window-y="24"
     inkscape:window-maximized="1"
     fit-margin-top="0"
     fit-margin-left="0"
     fit-margin-right="0"
     fit-margin-bottom="0" />
  <metadata
     id="metadata7">
    <rdf:RDF>
      <cc:Work
         rdf:about="">
        <dc:format>image/svg+xml</dc:format>
        <dc:type
           rdf:resource="http://purl.org/dc/dcmitype/StillImage" />
        <dc:title></dc:title>
      </cc:Work>
    </rdf:RDF>
  </metadata>
  <g
     inkscape:label="Capa 1"
     inkscape:groupmode="layer"
     id="layer1"
     transform="translate(800.05821,-287.61285)">
    <path
       style="fill:#ffffff;fill-opacity:1"
       d="M 512.53125 0.03125 C 467.71222 0.59314974 428.14983 13.048639 397.375 36.84375 C 384.83942 46.53633 375.51022 56.47539 364.84375 71.46875 L 355.03125 85.21875 L 353.4375 82.84375 C 348.74737 75.84021 325.52812 58.84517 311 51.8125 C 296.05298 44.57706 284.58846 41.43148 265 39.1875 C 242.64602 36.6267 228.60986 38.00315 208.65625 44.6875 C 156.69351 62.09465 109.92509 112.76097 90.625 172.59375 C 87.37779 182.66066 82.02938 215.5395 81.90625 226.1875 C 81.70234 243.81563 84.77693 264.82997 88.65625 272.5 L 90.125 275.4375 L 79.25 279.25 C 70.54412 282.30769 66.40886 284.49726 58.59375 290.25 C 53.22233 294.20392 46.29957 300.33101 43.21875 303.84375 C 22.83492 327.08563 9.1734 361.04953 3.09375 403.53125 C -6.8538 473.04006 7.65911 540.32779 40.96875 578.96875 C 57.79549 598.48874 75.5973 608.89562 100.6875 613.90625 C 106.38978 615.04507 110.65451 616.37357 110.96875 617.09375 C 111.26452 617.77149 110.72342 619.62303 109.78125 621.21875 C 104.13423 630.7824 98.24381 669.47174 99.9375 685.84375 C 103.00301 715.47762 114.5866 743.3067 135.40625 771.0625 C 168.32135 814.9437 217.01993 849.7818 270.5 867.75 C 284.13054 872.3295 316.10032 876.9234 328.40625 876.0625 C 338.9978 875.3215 354.71419 870.51035 359.96875 866.40625 L 363.84375 863.375 L 366.40625 869.5 C 371.44859 881.5168 383.6405 895.19885 397.5625 904.46875 C 410.137 912.84135 426.83106 919.40175 445.375 923.28125 C 507.86892 936.35565 569.54587 921.66835 598.875 886.71875 C 606.81392 877.25835 611.55619 867.3403 614.28125 854.4375 C 615.50409 848.6476 616.78429 843.6929 617.125 843.4375 C 617.4657 843.1821 621.10067 844.4828 625.21875 846.3125 C 635.32001 850.8003 660.85905 854.7318 673.9375 853.8125 C 685.43646 853.0043 698.82208 849.92325 710.84375 845.34375 C 758.08844 827.34645 799.42393 781.60355 811.53125 733.90625 C 817.44674 710.60198 816.8716 689.36228 809.78125 669.3125 C 809.63817 668.90795 810.9671 668.07875 812.71875 667.46875 C 819.19706 665.21277 830.45687 657.13304 836.46875 650.4375 C 856.32562 628.32275 869.88819 597.02588 876.78125 557.375 C 882.57652 524.03898 882.1382 501.06735 875.25 475.625 C 871.34259 461.19255 861.53048 445.51275 850.3125 434.46875 C 844.29607 436.14014 837.98641 437.0625 831.4375 437.0625 C 812.97089 437.0625 796.15951 429.93523 783.59375 418.3125 C 780.57063 424.71001 784.39694 431.76394 800.0625 433.875 C 815.35501 436.82443 823.04809 440.35183 832.71875 448.78125 C 852.11287 465.68616 861.35679 495.04752 859.28125 533.25 C 856.72551 580.29098 828.67323 638.13005 804.71875 645.75 C 801.58163 646.74794 796.71546 647.75083 793.90625 647.96875 C 786.78947 648.52089 783.85015 651.18612 782.875 658 C 782.21662 662.60042 782.55734 664.18367 785.53125 670.21875 C 792.53264 684.42693 795.17376 697.53598 794 712.40625 C 793.11581 723.60805 790.3461 732.8927 783.53125 747.5625 C 773.04708 770.1309 757.37352 788.9862 735.53125 805.375 C 711.7296 823.2341 690.12422 831.5137 664.5625 832.5625 C 651.03023 833.1177 633.81372 827.92165 619.65625 818.96875 C 601.90958 807.74585 592.47479 813.0936 594.78125 833.0625 C 597.02921 852.525 587.46595 870.78135 567.84375 884.46875 C 557.7276 891.52525 553.57057 893.5548 539.875 898.25 C 523.98281 903.6983 507.05424 906.5128 488.28125 906.8125 C 478.04298 906.976 458.24734 905.19105 451.25 903.46875 C 411.3492 893.64805 385.77934 871.8378 382.53125 844.875 C 381.29138 834.5827 378.74953 831.0553 371.8125 830.0625 C 365.31499 829.1326 361.67824 831.09505 357.5 837.78125 C 351.28289 847.73005 339.49046 853.43765 322.9375 854.53125 C 273.13021 857.82185 194.73439 813.20815 154.1875 758.46875 C 134.44159 731.81115 124.35014 707.93897 121.5625 681.375 C 119.35388 660.32762 122.35353 644.9331 133.03125 622.65625 C 140.25023 607.59525 140.15299 600.18107 132.6875 597.0625 C 131.14855 596.41969 125.53562 595.63987 120.21875 595.34375 C 93.07048 593.83215 72.19665 582.5718 54.59375 559.96875 C 33.8233 533.29854 22.13257 492.63079 21 442.96875 C 20.79956 434.18012 21.51422 426.49176 24.375 406.59375 C 28.5524 377.53456 31.62968 366.77195 41.4375 347.1875 C 50.99865 328.09565 60.63056 316.02238 73.1875 307.34375 C 81.9071 301.31737 87.07167 299.2891 99.4375 297.09375 C 111.59209 294.93591 113.89733 293.06775 114.59375 284.71875 C 114.92425 280.75553 114.14823 277.32662 110.9375 268.96875 C 103.41266 249.38106 101.39966 229.62244 104.65625 206.9375 C 111.9732 155.93716 147.13728 103.61804 192 77 C 218.68207 61.16899 250.82706 55.27126 275.34375 61.6875 C 298.77416 67.81947 324.39622 83.35568 341.40625 101.78125 C 347.79105 108.69739 351.15018 110.88616 356.53125 111.65625 C 365.0367 112.87348 367.31939 110.95358 375.875 95.46875 C 384.97215 79.00361 396.42157 66.13522 413.21875 53.5 C 441.69642 32.07843 474.37452 22.07536 518.9375 21.09375 C 534.31118 20.75503 571.75849 26.1064 587.75 30.9375 C 636.38416 45.63007 671.81234 66.06569 698.15625 94.65625 C 712.02934 109.71247 721.5391 128.39782 723.5625 144.5 C 723.98907 147.89467 723.98138 155.50399 723.53125 161.40625 C 722.76818 171.41211 722.86022 172.33993 725.125 175.5 C 727.32611 178.57125 728.15197 178.99794 733.84375 179.8125 C 737.34901 180.31414 741.85261 180.23384 744.03125 179.65625 C 749.86457 178.10973 770.6289 177.01077 776.84375 177.90625 C 790.54308 179.88002 810.3399 189.55252 822.34375 200.125 C 836.79385 212.85204 851.8181 236.91936 858.34375 257.78125 C 863.42987 274.04109 865.9769 290.05009 866.15625 305.28125 C 873.73252 309.58153 880.44514 315.21287 885.9375 321.90625 C 887.57009 309.49226 887.81949 304.05327 887.4375 295.9375 C 885.21123 248.63731 863.15982 202.57202 831.125 178.28125 C 823.82333 172.74468 811.3609 166.05575 802.21875 162.78125 C 788.05169 157.70697 757.90474 154.41184 750.1875 157.09375 C 747.20535 158.1301 745.99884 155.94506 745.6875 148.90625 C 744.12543 113.59046 723.6249 81.28748 684.625 52.75 C 663.86138 37.55659 631.66171 21.62323 607.75 14.71875 C 605.61578 14.10249 601.45453 12.86362 598.53125 11.9375 C 595.60797 11.01137 585.72866 8.63775 576.5625 6.6875 C 554.35681 1.9628688 532.90354 -0.22415897 512.53125 0.03125 z "
       transform="translate(-800.05821,287.61285)"
       id="path2996" />
    <g
       id="g3822"
       transform="translate(690.61637,-16.306021)" />
    <path
       transform="matrix(1.1392907,0,0,1.1392907,-879.56839,229.54302)"
       sodipodi:type="arc"
       style="fill:none;stroke:#ffffff;stroke-width:15.62463382;stroke-linecap:square;stroke-miterlimit:4;stroke-opacity:1;stroke-dasharray:none;fill-opacity:1"
       id="path3763-5"
       sodipodi:cx="509.28571"
       sodipodi:cy="375.87253"
       sodipodi:rx="60.714287"
       sodipodi:ry="60.714287"
       d="m 569.99999,375.87253 c 0,33.53157 -27.18271,60.71428 -60.71428,60.71428 -33.53158,0 -60.71429,-27.18271 -60.71429,-60.71428 0,-33.53158 27.18271,-60.71429 60.71429,-60.71429 33.53157,0 60.71428,27.18271 60.71428,60.71429 z" />
    <path
       transform="translate(-907.91534,371.18428)"
       sodipodi:type="arc"
       style="fill:none;stroke:#ffffff;stroke-width:9.4272728;stroke-linecap:square;stroke-miterlimit:4;stroke-opacity:1;stroke-dasharray:none"
       id="path3763-5-8"
       sodipodi:cx="509.28571"
       sodipodi:cy="375.87253"
       sodipodi:rx="25.000002"
       sodipodi:ry="25.000002"
       d="m 534.28571,375.87253 c 0,13.80712 -11.19288,25 -25,25 -13.80712,0 -25.00001,-11.19288 -25.00001,-25 0,-13.80712 11.19289,-25 25.00001,-25 13.80712,0 25,11.19288 25,25 z" />
    <path
       transform="translate(-576.48678,384.04142)"
       sodipodi:type="arc"
       style="fill:none;stroke:#ffffff;stroke-width:11.4004221;stroke-linecap:square;stroke-miterlimit:4;stroke-opacity:1;stroke-dasharray:none"
       id="path3763-5-8-1"
       sodipodi:cx="509.28571"
       sodipodi:cy="375.87253"
       sodipodi:rx="25.000002"
       sodipodi:ry="25.000002"
       d="m 534.28571,375.87253 c 0,13.80712 -11.19288,25 -25,25 -13.80712,0 -25.00001,-11.19288 -25.00001,-25 0,-13.80712 11.19289,-25 25.00001,-25 13.80712,0 25,11.19288 25,25 z" />
    <path
       transform="matrix(1.1392907,0,0,1.1392907,-561.71125,220.2573)"
       sodipodi:type="arc"
       style="fill:none;stroke:#ffffff;stroke-width:15.62463379;stroke-linecap:square;stroke-miterlimit:4;stroke-opacity:1;stroke-dasharray:none"
       id="path3763-5-5"
       sodipodi:cx="509.28571"
       sodipodi:cy="375.87253"
       sodipodi:rx="60.714287"
       sodipodi:ry="60.714287"
       d="m 569.99999,375.87253 a 60.714287,60.714287 0 1 1 -121.42857,0 60.714287,60.714287 0 1 1 121.42857,0 z" />
  </g>
</svg>
