<?xml version="1.0" encoding="UTF-8" standalone="no"?>
<!-- Created with Inkscape (http://www.inkscape.org/) -->

<svg
   xmlns:dc="http://purl.org/dc/elements/1.1/"
   xmlns:cc="http://creativecommons.org/ns#"
   xmlns:rdf="http://www.w3.org/1999/02/22-rdf-syntax-ns#"
   xmlns:svg="http://www.w3.org/2000/svg"
   xmlns="http://www.w3.org/2000/svg"
   xmlns:sodipodi="http://sodipodi.sourceforge.net/DTD/sodipodi-0.dtd"
   xmlns:inkscape="http://www.inkscape.org/namespaces/inkscape"
   width="776.3125"
   height="776.28125"
   id="svg3930"
   version="1.1"
   inkscape:version="0.48.3.1 r9886"
   sodipodi:docname="timeplus.svg">
  <defs
     id="defs3932" />
  <sodipodi:namedview
     id="base"
     pagecolor="#ffffff"
     bordercolor="#666666"
     borderopacity="1.0"
     inkscape:pageopacity="0.0"
     inkscape:pageshadow="2"
     inkscape:zoom="0.12374369"
     inkscape:cx="457.89121"
     inkscape:cy="151.99252"
     inkscape:document-units="px"
     inkscape:current-layer="layer1"
     showgrid="false"
     showguides="true"
     inkscape:guide-bbox="true"
     inkscape:window-width="675"
     inkscape:window-height="604"
     inkscape:window-x="603"
     inkscape:window-y="137"
     inkscape:window-maximized="0"
     fit-margin-top="0"
     fit-margin-left="0"
     fit-margin-right="0"
     fit-margin-bottom="0" />
  <metadata
     id="metadata3935">
    <rdf:RDF>
      <cc:Work
         rdf:about="">
        <dc:format>image/svg+xml</dc:format>
        <dc:type
           rdf:resource="http://purl.org/dc/dcmitype/StillImage" />
        <dc:title />
      </cc:Work>
    </rdf:RDF>
  </metadata>
  <g
     inkscape:label="Capa 1"
     inkscape:groupmode="layer"
     id="layer1"
     transform="translate(13.870535,-138.51786)">
    <g
       id="g4469">
      <path
         transform="translate(-5.7142853,-62.857143)"
         d="M 757.14285,589.50507 C 757.14285,797.79531 588.29025,966.64792 380,966.64792 171.70975,966.64792 2.8571472,797.79531 2.8571472,589.50507 2.8571472,381.21482 171.70975,212.36221 380,212.36221 c 208.29025,0 377.14285,168.85261 377.14285,377.14286 z"
         sodipodi:ry="377.14285"
         sodipodi:rx="377.14285"
         sodipodi:cy="589.50507"
         sodipodi:cx="380"
         id="path3938"
         style="opacity:0.98999999;fill:#ff6e6e;fill-opacity:0.29946522;fill-rule:nonzero;stroke:#000000;stroke-width:22;stroke-linecap:butt;stroke-linejoin:round;stroke-miterlimit:4;stroke-opacity:1;stroke-dasharray:none;stroke-dashoffset:0"
         sodipodi:type="arc" />
      <path
         sodipodi:nodetypes="cssc"
         inkscape:connector-curvature="0"
         id="path3942"
         d="m 406.91816,183.42794 c 0,0 297.13404,43.07876 306.10597,333.75644 6.10848,197.90597 14.94674,8.2796 -129.15596,-182.0305 C 444.41214,150.98043 237.79667,186.79082 406.91816,183.42794 z"
         style="fill:#ffffff;fill-opacity:1;stroke:none" />
      <path
         sodipodi:nodetypes="csscc"
         inkscape:connector-curvature="0"
         id="path4452"
         d="M 646.68027,856.18533 C 578.43084,924.43477 484.14512,966.64792 380,966.64792 171.70975,966.64792 2.8571472,797.79531 2.8571472,589.50507 2.8571472,485.35994 45.070298,391.07423 113.31973,322.8248 -15.453203,680.72138 386.40454,992.71656 646.68027,856.18533 z"
         style="opacity:0.98999999;fill:#000003;fill-opacity:0.36898415;fill-rule:nonzero;stroke:none"
         transform="translate(-5.7142853,-62.857143)" />
      <path
         sodipodi:nodetypes="zzszz"
         inkscape:connector-curvature="0"
         id="path4455"
         d="m 678.82251,541.28447 c 0,44.44671 -230.26172,194.1602 -272.74119,173.74624 -42.47947,-20.41396 -32.79408,-90.76434 -33.99904,-169.36323 -1.20496,-78.59889 -5.21903,-183.62903 40.05996,-194.29169 45.27899,-10.66266 266.68027,145.46197 266.68027,189.90868 z"
         style="fill:#ff6e6e;fill-opacity:1;stroke:#000000;stroke-width:15;stroke-linecap:butt;stroke-linejoin:miter;stroke-miterlimit:4;stroke-opacity:1;stroke-dasharray:none" />
      <path
         style="fill:#ff6e6e;fill-opacity:1;stroke:#000000;stroke-width:15;stroke-linecap:butt;stroke-linejoin:miter;stroke-miterlimit:4;stroke-opacity:1;stroke-dasharray:none"
         d="m 422.24376,541.28447 c 0,38.3858 -230.26172,194.1602 -272.74119,173.74624 -42.47947,-20.41396 -32.79408,-90.76434 -33.99904,-169.36323 -1.20496,-78.59889 -5.21903,-183.62903 40.05996,-194.29169 45.27899,-10.66266 266.68027,151.52288 266.68027,189.90868 z"
         id="path4459"
         inkscape:connector-curvature="0"
         sodipodi:nodetypes="zzszz" />
      <path
         sodipodi:nodetypes="cczc"
         inkscape:connector-curvature="0"
         id="path4461"
         d="m 161.03267,366.39681 c 56.01886,-2.85714 231.95855,143.08163 242.08999,168.76727 -69.58096,-49.4722 -54.21348,-40.0587 -110.03485,-80.8122 -55.82136,-40.7535 -132.05514,-87.95507 -132.05514,-87.95507 z"
         style="fill:#ffffff;fill-opacity:1;stroke:none" />
      <path
         style="fill:#ffffff;fill-opacity:1;stroke:none"
         d="m 419.60409,367.82538 c 56.01886,-2.85714 231.95855,143.08163 242.08999,168.76727 -69.58096,-49.4722 -54.21348,-40.0587 -110.03485,-80.8122 -55.82136,-40.7535 -132.05514,-87.95507 -132.05514,-87.95507 z"
         id="path4463"
         inkscape:connector-curvature="0"
         sodipodi:nodetypes="cczc" />
      <path
         sodipodi:nodetypes="cssc"
         inkscape:connector-curvature="0"
         id="path4465"
         d="m 128.28937,612.94583 c 2.02031,48.48732 -8.59939,123.13883 92.93404,67.68021 93.46404,-51.05103 -14.77242,11.65025 -53.53809,-4.04061 -42.4264,-17.17259 -39.39595,-63.6396 -39.39595,-63.6396 z"
         style="fill:#000000;fill-opacity:0.48663103;stroke:none" />
      <path
         style="fill:#000000;fill-opacity:0.48663103;stroke:none"
         d="m 385.43223,614.3744 c 2.02031,48.48732 -8.59939,123.13883 92.93404,67.68021 93.46404,-51.05103 -14.77242,11.65025 -53.53809,-4.04061 -42.4264,-17.17259 -39.39595,-63.6396 -39.39595,-63.6396 z"
         id="path4467"
         inkscape:connector-curvature="0"
         sodipodi:nodetypes="cssc" />
    </g>
  </g>
</svg>
